<?xml version="1.0" standalone="no"?><!DOCTYPE svg PUBLIC "-//W3C//DTD SVG 1.1//EN" "http://www.w3.org/Graphics/SVG/1.1/DTD/svg11.dtd"><svg t="1663071775311" class="icon" viewBox="0 0 1024 1024" version="1.1" xmlns="http://www.w3.org/2000/svg" p-id="29392" xmlns:xlink="http://www.w3.org/1999/xlink" width="200" height="200"><path d="M727.2632216841482 696.1943031656298c-4.438417104592592-4.438417104592592-11.096042154666666-6.657625050074073-15.53445925925926-6.657626263703703-6.657625050074073 0-11.096042154666666 2.2192079454814815-15.53445925925926 6.657626263703703-62.13783703703704 71.01467124622222-153.1253846471111 110.9604227602963-246.33214020266666 110.9604227602963-181.97509400651853 0-330.66206154903705-148.68696754251854-330.66206154903705-330.66206154903705S267.8870689564445 145.83060282785186 449.862162962963 145.83060282785186 778.3050153528889 294.5175703703703 778.3050153528889 476.4926643768889c0 42.164960673185185-8.876834209185184 84.32992134637037-24.41129225481481 124.27567407407408-4.438417104592592 11.096042154666666 0 24.411293468444445 13.315250100148146 28.849710573037036 11.096042154666666 4.438417104592592 24.411293468444445 0 28.849710573037036-13.315251313777777 17.75366720474074-44.384169832296294 26.630501413925924-90.98754761007407 26.630501413925924-139.81013333333334 0-206.38638747496293-168.65984390637036-375.0462301677037-375.0462301677037-375.0462301677037S74.81593279525936 270.106276901926 74.81593279525936 476.4926643768889s168.65984390637036 375.0462301677037 375.0462301677037 375.0462313813333c99.86438060562962 0 193.0711361611852-39.9457527277037 264.0858074074074-108.74121481481481l213.04401252503703 195.29034410666665c4.438417104592592 4.438417104592592 8.876834209185184 6.657625050074073 15.53445925925926 6.657626263703703 6.657625050074073 0 11.096042154666666-2.2192079454814815 15.53445925925926-6.657626263703703 8.876834209185184-8.876834209185184 6.657625050074073-22.19208430933333-2.2192079454814815-31.06891851851852l-228.57847178429628-210.82480336592593z" fill="#40B882" p-id="29393"></path></svg>