<?xml version="1.0" standalone="no"?><!DOCTYPE svg PUBLIC "-//W3C//DTD SVG 1.1//EN" "http://www.w3.org/Graphics/SVG/1.1/DTD/svg11.dtd"><svg t="1663071758578" class="icon" viewBox="0 0 1024 1024" version="1.1" xmlns="http://www.w3.org/2000/svg" p-id="29142" xmlns:xlink="http://www.w3.org/1999/xlink" width="200" height="200"><path d="M116.98089346844444 938.0880250500741c0 13.315251313777777 8.876834209185184 22.19208430933333 22.19208430933333 22.19208552296296s22.19208430933333-8.876834209185184 22.19208430933333-22.19208552296296c0-199.72876242488888 162.00221764266664-361.73098006755555 361.73098006755555-361.73098006755555s361.73098006755555 162.00221764266664 361.73098006755555 361.73098006755555c0 13.315251313777777 8.876834209185184 22.19208430933333 22.19208430933333 22.19208552296296s22.19208430933333-8.876834209185184 22.19208552296296-22.19208552296296c0-184.19430316562963-124.27567407407408-339.53889575822217-290.71631003496293-390.5806894269629 84.32992134637037-42.164960673185185 142.0293412788148-128.71409117866665 142.02934249244444-228.57847178429628 0-142.0293412788148-115.39883986488888-257.4281823573333-257.4281823573333-257.4281823573333-142.0293412788148 0-257.4281823573333 115.39883986488888-257.4281823573333 257.4281823573333 0 99.86438060562962 57.69941993244444 186.4135111111111 142.02934249244444 228.57847178429628-168.65984390637036 48.822585723259266-290.7163088213333 204.16717831585183-290.7163088213333 390.5806894269629z m193.0711361611852-621.3783703703704c0-117.61804902399999 95.42596350103702-213.04401252503703 213.04401252503703-213.04401252503703s213.04401252503703 95.42596350103702 213.04401252503703 213.04401252503703-95.42596350103702 213.04401252503703-213.04401252503703 213.04401252503703-213.04401252503703-95.42596350103702-213.04401252503703-213.04401252503703z" fill="#40B882" p-id="29143"></path></svg>