<?xml version="1.0" standalone="no"?><!DOCTYPE svg PUBLIC "-//W3C//DTD SVG 1.1//EN" "http://www.w3.org/Graphics/SVG/1.1/DTD/svg11.dtd"><svg t="1663071712577" class="icon" viewBox="0 0 1024 1024" version="1.1" xmlns="http://www.w3.org/2000/svg" p-id="28487" width="200" height="200" xmlns:xlink="http://www.w3.org/1999/xlink"><path d="M234.25373179044357 567.549253089575c10.099864700228474-10.099864700228474 10.099864700228474-25.249660369730368 0-35.34952506995885s-25.249660369730368-10.099864700228474-35.34952506995885 0l-100.9986428597623 100.99864424060313c-70.6990501399177 73.2240156245544-70.6990501399177 189.37245553465942 0 262.5964711592138 35.34952506995885 35.34952506995885 80.79891484014617 53.02428760493826 131.2982355796069 53.02428760493826s95.94871050964805-20.19972801961613 131.2982355796069-53.02428760493826l219.67204963534482-219.67204825450403c70.6990501399177-73.2240156245544 70.6990501399177-189.37245553465942 0-262.5964725400546-10.099864700228474-10.099864700228474-25.249660369730368-10.099864700228474-35.34952506995885 0-10.099864700228474 10.099864700228474-10.099864700228474 25.249660369730368 0 35.34952506995885 53.02428760493826 53.02428760493826 53.02428760493826 138.87313479519864 0 189.37245553465942l-219.67204963534482 219.67204963534482c-25.249660369730368 25.249660369730368-58.07421995505251 40.399457420073084-95.94871050964805 40.399457420073084s-70.6990501399177-15.149797050342714-95.94871050964805-40.399457420073084c-53.02428760493826-53.02428760493826-53.02428760493826-138.87313479519864 0-189.37245553465942l100.9986428597623-100.99864424060313z" fill="#40B882" p-id="28488"></path><path d="M794.7962005596708 60.031071925285914c-50.499322120301564 0-95.94871050964805 20.19972801961613-131.2982355796069 53.02428760493826l-219.67204963534482 219.67204963534482c-70.6990501399177 73.2240156245544-70.6990501399177 189.37245553465942 0 262.5964711592138 5.049932350114237 5.049932350114237 12.624830184865184 7.574897834750945 17.674762534979426 7.574897834750945s12.624830184865184-2.524965484636708 17.674762534979426-7.574897834750945c10.099864700228474-10.099864700228474 10.099864700228474-25.249660369730368 0-35.34952506995885-53.02428760493826-53.02428760493826-53.02428760493826-138.87313479519864 0-189.37245553465942l219.67204963534482-219.67204825450403c25.249660369730368-25.249660369730368 58.07421995505251-40.399457420073084 93.42374502501137-40.399457420073084 35.34952506995885 0 70.6990501399177 15.149797050342714 95.94871050964805 40.399457420073084 53.02428760493826 53.02428760493826 53.02428760493826 138.87313479519864 0 189.37245553465942l-100.9986428597623 100.9986428597623c-10.099864700228474 10.099864700228474-10.099864700228474 25.249660369730368 0 35.34952506995885s25.249660369730368 10.099864700228474 35.34952506995885 0l100.9986428597623-100.9986428597623c70.6990501399177-73.2240156245544 70.6990501399177-189.37245553465942 0-260.0715056745771-32.82455958532214-35.34952506995885-80.79891484014617-55.54925308957499-128.77327009497017-55.549254470415804z" fill="#40B882" p-id="28489"></path></svg>