<?xml version="1.0" standalone="no"?><!DOCTYPE svg PUBLIC "-//W3C//DTD SVG 1.1//EN" "http://www.w3.org/Graphics/SVG/1.1/DTD/svg11.dtd"><svg t="1663054341986" class="icon" viewBox="0 0 1024 1024" version="1.1" xmlns="http://www.w3.org/2000/svg" p-id="7511" xmlns:xlink="http://www.w3.org/1999/xlink" width="125" height="125"><path d="M919.36 325.12l-0.96 10.88c0 3.52 0 6.88-1.44 10.4s-0.96 6.72-1.44 10.08l-1.6 8.64v4.16c0 1.44-1.12 5.12-1.6 7.68s-1.6 6.72-2.4 10.08-1.76 6.56-2.56 9.92l-2.88 9.6c-1.12 3.2-2.08 6.4-3.2 9.6-2.08 6.56-4.32 12.8-6.88 19.2a250.4 250.4 0 0 1-11.04 25.28l-3.68 7.52c-1.28 2.56-2.56 5.12-4 7.68a400 400 0 0 1-124.64 140.96l-4.64 3.2a405.6 405.6 0 0 1-34.88 21.28l-8.16 4.16a373.92 373.92 0 0 1-48 20.64l-7.04 2.4-6.24 2.08c-5.76 1.76-11.52 3.52-17.28 4.96l-8.16 2.08-7.68 1.76-10.72 2.24-7.84 1.44h-2.08l-7.84 1.28c-3.68 0-7.36 0.96-11.2 1.44h-5.76l-10.88 1.12h-62.4l-11.52 1.12h-5.92l-11.04-1.44-8-1.28h-1.92l-7.84-1.44-10.72-2.24-7.68-1.76-8.16-2.08c-5.76-1.44-11.52-3.2-17.28-4.96l-6.24-2.08-7.04-2.4a393.6 393.6 0 0 1-39.84-16l-7.36-3.68h-0.8l-8.16-4.16c-10.88-5.92-21.6-12.32-32-19.2l-7.04-4.8a404.16 404.16 0 0 1-125.44-141.44c-1.44-2.56-2.72-5.12-4-7.68l-3.68-7.52c-2.56-5.44-4.96-10.88-7.36-16l-4-12.64c-2.4-6.4-4.8-12.64-6.88-19.2-0.96-3.2-2.08-6.4-3.04-9.6-0.8-3.2-1.92-6.4-2.72-9.6s-1.76-6.56-2.56-9.92l-2.4-10.08c0-2.56-1.12-5.12-1.6-7.68l-0.96-4.16-1.44-8.64c0-3.36-1.12-6.72-1.6-10.08s0-6.88-1.28-10.4 0-6.88-1.12-10.4a30.4 30.4 0 0 1 8.96-24 13.76 13.76 0 0 1 2.24-2.08 39.52 39.52 0 0 1 7.52-4.64 32 32 0 0 1 12-2.4H192v7.68a329.12 329.12 0 0 0 658.24 0v-7.68h39.36a32 32 0 0 1 12 2.4 39.52 39.52 0 0 1 7.52 4.64l2.24 2.08a30.08 30.08 0 0 1 8 23.68z" fill="#00B653" p-id="7512"></path><path d="M849.6 299.68a329.12 329.12 0 0 1-658.24 0v-7.68h658.08c0 2.56 0.16 5.12 0.16 7.68z" fill="#FF3939" p-id="7513"></path><path d="M213.12 604.96a16 16 0 0 1-10.72-4.16 418.08 418.08 0 0 1-53.28-59.68 16 16 0 0 1 25.6-18.88A384 384 0 0 0 224 577.28a16 16 0 0 1 0.8 22.56 16 16 0 0 1-11.68 5.12z" fill="#1A1A1A" p-id="7514"></path><path d="M484.8 711.04A414.72 414.72 0 0 1 251.04 640l-8-5.6a16 16 0 0 1-3.04-22.88 16 16 0 0 1 21.44-3.52l7.52 5.12a382.4 382.4 0 0 0 215.84 66.08 387.04 387.04 0 0 0 383.04-350.4 14.4 14.4 0 0 0-3.68-10.88 14.72 14.72 0 0 0-11.04-4.8h-736a14.4 14.4 0 0 0-11.04 4.8 13.92 13.92 0 0 0-3.84 10.88 380 380 0 0 0 45.12 149.44 16 16 0 0 1-6.4 21.6 16 16 0 0 1-21.44-6.4 410.72 410.72 0 0 1-49.6-161.92 45.6 45.6 0 0 1 12-35.04 46.56 46.56 0 0 1 34.56-16h736a46.56 46.56 0 0 1 46.4 50.4A418.88 418.88 0 0 1 484.8 711.04z" fill="#1A1A1A" p-id="7515"></path><path d="M484.8 660A350.56 350.56 0 0 1 134.56 309.92a16 16 0 0 1 16-16 16 16 0 0 1 16 16 318.56 318.56 0 0 0 478.4 275.2 16 16 0 1 1 16 27.36 348.8 348.8 0 0 1-176.16 47.52zM688 590.72a16 16 0 0 1-9.76-28.48l5.6-4.48A16 16 0 1 1 704 582.56l-6.08 4.8a16 16 0 0 1-9.92 3.36zM720 562.56a16 16 0 0 1-11.36-4.64 16 16 0 0 1 0-22.56 315.68 315.68 0 0 0 93.76-225.44 16 16 0 0 1 32 0 347.68 347.68 0 0 1-103.04 248 16 16 0 0 1-11.36 4.64z" fill="#1A1A1A" p-id="7516"></path><path d="M372.48 463.04m-7.68 0a7.68 7.68 0 1 0 15.36 0 7.68 7.68 0 1 0-15.36 0Z" fill="#C0272D" p-id="7517"></path><path d="M347.04 463.04m-7.68 0a7.68 7.68 0 1 0 15.36 0 7.68 7.68 0 1 0-15.36 0Z" fill="#C0272D" p-id="7518"></path><path d="M398.08 463.04m-7.68 0a7.68 7.68 0 1 0 15.36 0 7.68 7.68 0 1 0-15.36 0Z" fill="#C0272D" p-id="7519"></path><path d="M256.8 420.64a10.08 10.08 0 0 1-7.36-3.04A100 100 0 0 1 224 346.08a10.08 10.08 0 0 1 11.2-9.92 10.56 10.56 0 0 1 9.92 11.04 81.12 81.12 0 0 0 18.88 55.2 10.56 10.56 0 0 1-7.36 18.24z" fill="#FFFFFF" p-id="7520"></path><path d="M276.16 430.72m-10.24 0a10.24 10.24 0 1 0 20.48 0 10.24 10.24 0 1 0-20.48 0Z" fill="#FFFFFF" p-id="7521"></path><path d="M418.4 419.68m-15.36 0a15.36 15.36 0 1 0 30.72 0 15.36 15.36 0 1 0-30.72 0Z" fill="" p-id="7522"></path><path d="M566.4 419.68m-15.36 0a15.36 15.36 0 1 0 30.72 0 15.36 15.36 0 1 0-30.72 0Z" fill="" p-id="7523"></path><path d="M531.52 465.6a11.68 11.68 0 0 1 11.2 16 53.44 53.44 0 0 1-100.64 0 11.68 11.68 0 0 1 11.2-16z" fill="" p-id="7524"></path><path d="M471.84 506.4a20.48 10.24 0 1 0 40.96 0 20.48 10.24 0 1 0-40.96 0Z" fill="#FF2970" p-id="7525"></path><path d="M612.32 463.04m-7.68 0a7.68 7.68 0 1 0 15.36 0 7.68 7.68 0 1 0-15.36 0Z" fill="#C0272D" p-id="7526"></path><path d="M586.72 463.04m-7.68 0a7.68 7.68 0 1 0 15.36 0 7.68 7.68 0 1 0-15.36 0Z" fill="#C0272D" p-id="7527"></path><path d="M637.76 463.04m-7.68 0a7.68 7.68 0 1 0 15.36 0 7.68 7.68 0 1 0-15.36 0Z" fill="#C0272D" p-id="7528"></path></svg>