<?xml version="1.0" standalone="no"?><!DOCTYPE svg PUBLIC "-//W3C//DTD SVG 1.1//EN" "http://www.w3.org/Graphics/SVG/1.1/DTD/svg11.dtd"><svg t="1702086997900" class="icon" viewBox="0 0 1024 1024" version="1.1" xmlns="http://www.w3.org/2000/svg" p-id="3431" xmlns:xlink="http://www.w3.org/1999/xlink" width="48" height="48"><path d="M683.690667 948.6336c60.416 0 106.564267-25.941333 110.114133-53.6576 2.321067-18.8416-17.066667-40.277333-60.757333-58.231467a25.6 25.6 0 0 1-10.6496-39.253333c16.042667-20.957867 29.9008-47.240533 38.434133-72.9088a25.6 25.6 0 0 1 45.192533-6.690133c15.291733 21.7088 26.4192 30.173867 39.594667 30.173866 2.048 0 3.822933-0.2048 6.007467-0.682666 2.048-0.273067 4.437333-2.321067 7.9872-10.376534 15.9744-36.317867 10.376533-113.0496-14.336-152.234666l-2.798934-4.5056a1285.9392 1285.9392 0 0 0-39.5264-60.6208 25.6 25.6 0 0 1-1.024-27.8528c2.8672-4.9152 4.3008-13.038933 4.3008-26.077867 0-22.050133-4.096-31.061333-13.789866-38.229333a25.6 25.6 0 0 1-10.4448-22.254934c0.4096-6.212267 0.477867-11.8784 0.4096-23.620266l-0.068267-7.9872c0-143.906133-119.808-261.256533-267.127467-261.256534-149.0944 0-265.352533 114.619733-265.352533 261.256534 0 9.898667 0.682667 20.48 2.2528 32.221866a25.6 25.6 0 0 1-9.352533 23.210667c-12.629333 10.171733-18.6368 22.3232-18.6368 36.6592 0 7.099733 3.208533 17.681067 9.079466 30.3104 4.369067 9.352533 2.730667 20.48-4.232533 28.0576-20.002133 21.9136-33.450667 39.7312-43.485867 59.8016-26.965333 53.998933-31.607467 120.149333-16.5888 152.098133 3.754667 8.192 7.099733 10.8544 10.376534 11.605334 8.533333 2.048 21.2992-6.485333 44.2368-34.133334a25.6 25.6 0 0 1 44.2368 9.079467c7.714133 26.077867 21.2992 52.0192 39.185066 74.410667 10.717867 13.448533 5.393067 33.450667-10.581333 39.799466-44.032 17.339733-68.8128 41.437867-65.809067 61.44 4.642133 31.675733 63.556267 55.978667 141.653334 47.5136 44.919467-4.846933 82.875733-22.391467 103.8336-46.762666a25.6 25.6 0 0 1 27.170133-7.714134 44.782933 44.782933 0 0 0 24.439467 0.273067 25.6 25.6 0 0 1 26.897066 7.031467c21.572267 23.552 55.0912 40.277333 95.8464 47.240533 10.922667 1.911467 22.186667 2.8672 33.314134 2.8672z m160.904533-47.240533c-7.509333 58.9824-77.824 98.440533-160.904533 98.440533-13.994667 0-28.125867-1.2288-41.915734-3.549867-45.6704-7.7824-85.333333-25.941333-114.414933-52.6336a98.986667 98.986667 0 0 1-23.210667-0.068266c-30.583467 28.672-75.776 47.5136-126.429866 53.0432-101.853867 10.990933-188.074667-24.576-197.8368-90.999467-6.417067-42.734933 21.7088-77.960533 68.4032-103.082667a276.48 276.48 0 0 1-14.267734-25.8048c-22.050133 19.456-42.325333 26.555733-66.696533 20.6848-18.432-4.369067-34.542933-17.544533-44.8512-39.799466-22.050133-47.172267-16.315733-129.4336 17.2032-196.608 10.513067-20.957867 23.3472-39.1168 40.482133-59.118934a94.754133 94.754133 0 0 1 19.6608-102.8096 281.531733 281.531733 0 0 1-1.160533-25.463466C198.656 198.519467 337.92 61.166933 515.208533 61.166933c175.445333 0 318.327467 140.014933 318.327467 312.251734v7.7824c0.068267 5.870933 0.136533 10.4448 0 14.336 16.247467 16.657067 23.893333 38.912 23.893333 70.178133 0 13.994667-1.160533 25.736533-4.437333 36.2496 8.465067 12.4928 17.749333 27.101867 32.768 51.063467l2.8672 4.437333c33.723733 53.6576 40.686933 148.343467 17.885867 200.0896-10.24 23.415467-26.624 36.795733-45.056 40.1408a76.936533 76.936533 0 0 1-15.701334 1.570133c-20.6848 0-37.410133-6.5536-52.6336-19.182933a317.713067 317.713067 0 0 1-12.4928 22.7328c44.8512 25.053867 68.949333 59.118933 63.965867 98.577067z" fill="#515151" p-id="3432"></path></svg>