<?xml version="1.0" standalone="no"?><!DOCTYPE svg PUBLIC "-//W3C//DTD SVG 1.1//EN" "http://www.w3.org/Graphics/SVG/1.1/DTD/svg11.dtd"><svg t="1663068302198" class="icon" viewBox="0 0 1024 1024" version="1.1" xmlns="http://www.w3.org/2000/svg" p-id="18135" width="200" height="200" xmlns:xlink="http://www.w3.org/1999/xlink"><path d="M735.4 343.9c36.1 48.2 55.8 106.4 55.7 167.7 0 74.8-29.1 145.1-82 198-43.3 43.3-98.4 70.8-158 79.2v140.9c93.8-8.9 185.2-49.3 257-121.1C962.6 654.1 971.6 409.2 835 244.3l-99.6 99.6z" fill="#35495E" p-id="18136" data-spm-anchor-id="a313x.7781069.0.i16" class=""></path><path d="M313.1 709.6c-52.9-52.9-82-123.2-82-198 0-61.2 19.6-119.6 55.7-167.7l-99.6-99.6c-136.5 165-127.6 409.8 26.9 564.3 71.8 71.8 163.2 112.1 257 121.1V788.9c-59.7-8.5-114.7-35.9-158-79.3z" fill="#40B882" p-id="18137" data-spm-anchor-id="a313x.7781069.0.i15" class=""></path><path d="M243.7 187.7l99.6 99.6c48.2-36.1 106.4-55.8 167.7-55.7 61.2 0 119.6 19.6 167.7 55.7l99.6-99.6c-154.7-128-379.8-128-534.6 0z" fill="#FF3939" p-id="18138" data-spm-anchor-id="a313x.7781069.0.i17" class="selected"></path></svg>