<?xml version="1.0" standalone="no"?><!DOCTYPE svg PUBLIC "-//W3C//DTD SVG 1.1//EN" "http://www.w3.org/Graphics/SVG/1.1/DTD/svg11.dtd"><svg t="1702087034297" class="icon" viewBox="0 0 1024 1024" version="1.1" xmlns="http://www.w3.org/2000/svg" p-id="6484" xmlns:xlink="http://www.w3.org/1999/xlink" width="48" height="48"><path d="M478.24709287 882.98090484c-192.56217892 0-391.73747236-97.68201482-391.73747237-261.12875213 0-81.72278518 48.73656524-175.83742906 137.22883647-264.98786097 84.7101812-85.27848662 181.70602849-138.2569208 253.13396696-138.2569208 29.84361937 0 54.96808662 9.43480342 72.68941311 27.27515898 19.56160912 19.68647293 28.72101197 48.44949516 26.46762848 83.18030769l-0.63248775 9.9365926 9.47564672-3.05274531c33.65605014-10.83164444 64.6467829-16.31748376 92.14249573-16.31748376 56.57614587 0 84.54447407 23.17099031 98.04727066 42.61240342 11.89006952 17.07016752 23.2771829 47.29654701 10.07312592 94.34219943l-1.65473732 5.926947 5.72973219 2.23471226c69.59465755 27.11295271 109.51840456 78.82524444 109.51840457 141.88380627-0.03034074 130.70441026-172.72516923 276.35163533-420.48182337 276.35163532z m-1.37466894-603.22760569c-44.97781425 0-127.28057436 37.16974131-209.75137551 120.2076809-75.9277037 76.50067692-119.47250143 157.36925356-119.47250141 221.89117266 0 123.52299031 171.60256183 199.98282393 330.59737891 199.98282393 219.32271226 0 359.29505185-127.45445014 359.29505185-215.19987236 0-57.14911909-57.95548262-81.45438633-82.87690028-89.2519567-10.29484672-3.11225983-25.75695498-7.7847339-33.7750792-24.383453-5.37147806-11.1362188-5.25828376-24.01236239 0.36992364-38.26784273 10.1991567-25.83630769 11.4711339-46.2871339 3.6093812-57.59722849-7.34362621-10.56324559-24.33560798-16.38283305-47.85785071-16.38283305-29.39550997 0-67.4731396 9.23058689-107.23117949 25.9903453l-5.74140171 2.42025755h-0.79352707l-0.98023932 0.29873961c-6.44740741 1.98965242-12.54706325 3.00490029-18.12742564 3.00490028-12.89948262 0-24.30526723-5.51501311-31.32098005-15.13419488-4.3177208-5.90944274-10.64609915-18.6945641-4.49859829-37.92825982 10.08596239-32.66297436 9.3029379-58.9824-2.09701197-70.45470086-6.09965585-6.09382108-15.96389744-9.19557835-29.34883191-9.19557834z" fill="#2C2C2C" p-id="6485"></path><path d="M444.50702222 793.67526838c-115.49903133 0-205.12674644-59.03024502-213.11452992-140.36560228-8.89683875-90.58344843 85.40335043-171.64340513 214.68524673-184.52538348a339.12896183 339.12896183 0 0 1 33.41099031-1.67924331c115.47569231 0 205.0917379 59.01974245 213.06201709 140.35393277 8.866498 90.61378918-85.43369117 171.67374587-214.66890939 184.55572422a342.33691168 342.33691168 0 0 1-33.37481482 1.66057208z m34.97003761-272.19378689c-9.32627692 0-18.74824388 0.47845014-28.01500628 1.39217321-97.33543021 9.70903704-171.78227236 65.83707351-165.96268489 125.10070884 5.12058348 52.06471111 73.47827236 91.32562963 159.01348831 91.32562962 9.27843191 0 18.6945641-0.47845014 27.99166725-1.39917492 97.30625641-9.69736752 171.75193162-65.84174131 165.93234415-125.15438861-5.08440798-52.02270085-73.44209687-91.26494815-158.95980854-91.26494814z" fill="#2C2C2C" p-id="6486"></path><path d="M425.61407635 702.86426439c-7.35412877 0-14.51804444-1.12260741-21.28753049-3.31530941-15.41543021-5.01905869-27.01842963-15.12252535-32.67581082-28.47595213-5.41465527-12.78045356-4.79267008-27.19113846 1.7562621-40.5865755 11.17239431-22.82440569 37.1627396-38.16165014 64.67712365-38.16165014 5.96895726 0 11.83638974 0.74684901 17.44009117 2.21720797 16.15060969 4.19402393 29.09210256 14.24381082 35.52667351 27.56106211 6.02847179 12.48754872 6.01680228 26.87489458-0.02333904 40.52822792-10.40337322 23.69495157-37.29577208 40.23298918-65.41347008 40.23298918z m530.68756239-265.1967453a30.6091396 30.6091396 0 0 1-29.69424957-37.7602188 183.65016979 183.65016979 0 0 0 5.07857322-42.92981425c0-100.30415498-81.60492308-181.91374587-181.91607977-181.91374587-7.65870313 0-15.36641824 0.47845014-22.90025755 1.42134701a30.49477835 30.49477835 0 0 1-33.48917608-27.17246723l-0.00583475-0.04201026a30.48310883 30.48310883 0 0 1 26.0265208-33.48334131 246.97362963 246.97362963 0 0 1 30.36991453-1.87529117c134.02672136 0 243.05500627 109.03995441 243.05500627 243.06550883 0 19.37723077-2.28839202 38.65760456-6.79982678 57.29848888a30.50178005 30.50178005 0 0 1-29.67674531 23.39737893l-0.04784501-0.00583476z" fill="#2C2C2C" p-id="6487"></path><path d="M849.42404558 398.17437721a27.21564444 27.21564444 0 0 1-26.77220285-31.88111681c0.80519658-4.61295954 1.14127864-9.38695841 1.00941311-14.1842963a70.10811624 70.10811624 0 0 0-21.99353619-49.01780056 69.51647179 69.51647179 0 0 0-48.02005697-19.11933448c-0.72234303 0-3.04574359 0.04784502-3.04574359 0.04784501a26.94607864 26.94607864 0 0 1-27.04877038-26.23540513 27.1082849 27.1082849 0 0 1 7.39730599-19.60945412 26.96474986 26.96474986 0 0 1 18.97579942-8.51407864 124.01894473 124.01894473 0 0 1 89.07224616 33.92561595 123.65485585 123.65485585 0 0 1 38.9913527 86.96823249 125.57799202 125.57799202 0 0 1-1.79827235 25.130302 27.16196467 27.16196467 0 0 1-26.75469859 22.5011601h-0.0361755v-0.01166951h0.02333904z" fill="#2C2C2C" p-id="6488"></path></svg>